<?xml version="1.0" encoding="utf-8"?>
<!-- Generator: Adobe Illustrator 25.0.1, SVG Export Plug-In . SVG Version: 6.00 Build 0)  -->
<svg version="1.1" id="레이어_1" xmlns="http://www.w3.org/2000/svg" xmlns:xlink="http://www.w3.org/1999/xlink" x="0px"
	 y="0px" viewBox="0 0 650 646" style="enable-background:new 0 0 650 646;" xml:space="preserve">
<g>
	<g>
		<path style="fill:#5343EF;" d="M451.2634277,603.121521H201.9576416
			c-85.4382782,0-155.3423157-69.9040527-155.3423157-155.3423157V198.4734192
			c0-85.4382629,69.9040375-155.3423004,155.3423157-155.3423004h249.3057861
			c85.4382324,0,155.3422852,69.9040375,155.3422852,155.3423004v249.3057861
			C606.6057129,533.2174683,536.7016602,603.121521,451.2634277,603.121521z"/>
		<path style="fill:#5343EF;" d="M376.5540161,634.069519h-99.8869629
			c-143.5498657,0-260.9997559-117.4498901-260.9997559-260.9997253v-99.8869629
			c0-143.5498505,117.4498825-260.9997253,260.9997559-260.9997253h99.8869629
			c143.5498657,0.000001,260.9997559,117.4498901,260.9997559,260.9997253v99.8869629
			C637.553772,516.6196289,520.1038818,634.069519,376.5540161,634.069519z"/>
	</g>
	<g>
		
			<linearGradient id="SVGID_1_" gradientUnits="userSpaceOnUse" x1="260.6456604" y1="244.3938293" x2="260.6456604" y2="466.151001">
			<stop  offset="0" style="stop-color:#E597FF"/>
			<stop  offset="1" style="stop-color:#FFFFA9"/>
		</linearGradient>
		<path style="fill:url(#SVGID_1_);" d="M266.193634,534.8726807h-11.0959473
			c-14.4311371,0-26.2384338-11.807312-26.2384338-26.2384338V137.6183777
			c0-14.4311371,11.8072968-26.2384338,26.2384338-26.2384338h11.0959473c14.4311523,0,26.2384338,11.8072968,26.2384338,26.2384338
			v371.0158691C292.4320679,523.0653687,280.6247864,534.8726807,266.193634,534.8726807z"/>
		<g>
			
				<linearGradient id="SVGID_2_" gradientUnits="userSpaceOnUse" x1="249.046524" y1="174.6370392" x2="250.2661591" y2="174.6370392">
				<stop  offset="0" style="stop-color:#E597FF"/>
				<stop  offset="1" style="stop-color:#FFFFFF"/>
			</linearGradient>
			<path style="fill:url(#SVGID_2_);" d="M249.046524,175.123764c0.4037933-0.3279572,0.8119965-0.6502991,1.219635-0.9734344
				C249.8475342,174.4645844,249.440979,174.7891235,249.046524,175.123764z"/>
			<path style="fill:#E4B0FF;" d="M244.7228241,210.3028259l4.6170197,6.4283752
				c8.303772,11.5615845,24.4743652,14.3094788,36.1290894,6.2261963c3.1957703-2.7226715,6.6216125-5.1668701,10.224762-7.3301239
				l6.447113-4.6305084c11.6790771-8.3881226,14.3716736-24.8068237,5.98349-36.4859009l-4.6170044-6.4283752
				c-6.2073975-8.6427002-16.8115845-12.3574524-26.6392212-10.309021
				c-5.7835388,2.6737976-11.3545227,5.7606201-16.6715698,9.2273712l-9.4902649,6.8160706
				c-0.1503143,0.1079407-0.2927246,0.2228241-0.4400787,0.3334198c-0.4076385,0.3231354-0.8158417,0.6454773-1.219635,0.9734344
				C238.7945251,183.8223724,236.7493286,199.2012024,244.7228241,210.3028259z"/>
			<g>
				
					<linearGradient id="SVGID_3_" gradientUnits="userSpaceOnUse" x1="269.0083923" y1="285.6026917" x2="478.3587952" y2="285.6026917">
					<stop  offset="0" style="stop-color:#E597FF"/>
					<stop  offset="1" style="stop-color:#FFFFA9"/>
				</linearGradient>
				<path style="fill:url(#SVGID_3_);" d="M363.8915405,148.8056641l-16.4997864-2.0506134
					c-24.9366455-3.0991364-49.1699219,1.146225-70.5236816,11.0184174
					c9.8276367-2.0484314,20.4318237,1.6663208,26.6392212,10.309021l4.6170044,6.4283752
					c8.3881836,11.6790771,5.6955872,28.0977783-5.98349,36.4859009l-6.447113,4.6305084
					c13.9457703-8.3729706,30.6491699-12.354126,47.9465332-10.2044067l9.5280457,1.1841431
					c41.1528015,5.1144867,70.6386719,42.9694824,65.5241699,84.1222992l-1.1841431,9.5280457
					c-5.1144714,41.152771-42.9694824,70.6386719-84.1223145,65.5242004l-9.5280457-1.1841431
					c-14.5814514-1.8121948-27.6851807-7.7493896-38.3169861-16.4727783l2.5938416,2.3332214
					c4.5811768,4.5094299,8.8486938,9.3573303,12.7608337,14.5098267
					c4.2120667,9.3182068,2.9729614,20.7090149-4.0666504,28.8357239l-5.2359619,6.0446167
					c-5.8416138,6.7437744-14.3680725,9.7254028-22.5846252,8.7743225
					c13.4182739,7.022522,28.2702332,11.8058167,44.1262817,13.7764282l16.4997864,2.0505981
					c71.2645569,8.856781,136.8184204-42.2041626,145.6752014-113.4687195l2.0505981-16.4997864
					C486.217041,223.2162933,435.1561279,157.6624451,363.8915405,148.8056641z"/>
				
					<linearGradient id="SVGID_4_" gradientUnits="userSpaceOnUse" x1="280.3607178" y1="345.7947388" x2="285.5409546" y2="345.7947388">
					<stop  offset="0" style="stop-color:#E597FF"/>
					<stop  offset="1" style="stop-color:#FFFFFF"/>
				</linearGradient>
				<path style="fill:url(#SVGID_4_);" d="M280.3607178,343.4648132c1.651886,1.6303101,3.381012,3.1835632,5.1802368,4.6598206
					L280.3607178,343.4648132z"/>
				<path style="fill:#E5A6FF;" d="M291.5930176,399.8480225l5.2359619-6.0446167
					c7.0396118-8.126709,8.278717-19.5175171,4.0666504-28.8357239c-3.9121399-5.1524963-8.179657-10.0003967-12.7608337-14.5098267
					l-2.5938416-2.3332214c-1.7992249-1.4762573-3.5283508-3.0295105-5.1802368-4.6598206l-1.0162048-0.9140625
					c-0.1392212-0.1252136-0.2833862-0.2409973-0.42453-0.3627319c-0.4072266-0.3327942-0.8138123-0.6662903-1.224823-0.9942017
					c-10.799469-8.2405396-26.2726746-6.8071899-35.3150787,3.6317444l-5.2360229,6.0446167
					c-7.7729797,8.9734497-8.4704895,21.9231567-2.5664368,31.6696472
					c9.8760834,10.4492798,21.4861603,19.3079529,34.4307709,26.0825195
					C277.2249451,409.5734253,285.7514038,406.5917969,291.5930176,399.8480225z"/>
			</g>
		</g>
	</g>
</g>
</svg>
